HIERARCHY
ROOT Hips
{
	OFFSET 0.000000 103.266502 0.000000
	CHANNELS 6 Xposition Yposition Zposition Xrotation Yrotation Zrotation 
	JOINT Spine
	{
		OFFSET -0.002400 12.777504 0.315300
		CHANNELS 3 Xrotation Yrotation Zrotation
		JOINT Spine1
		{
			OFFSET -0.002067 5.816869 0.032633
			CHANNELS 3 Xrotation Yrotation Zrotation
			JOINT Spine1_split
			{
				OFFSET -0.002067 5.816869 0.032633
				CHANNELS 3 Xrotation Yrotation Zrotation
				JOINT Spine2
				{
					OFFSET -0.002067 5.816869 0.032633
					CHANNELS 3 Xrotation Yrotation Zrotation
					JOINT Neck
					{
						OFFSET -0.003700 21.199493 -0.826900
						CHANNELS 3 Xrotation Yrotation Zrotation
						JOINT Head
						{
							OFFSET 0.000000 20.442200 4.834800
							CHANNELS 3 Xrotation Yrotation Zrotation
							JOINT HeadTop_End
							{
								OFFSET 0.000000 34.668396 4.968400
								CHANNELS 3 Xrotation Yrotation Zrotation
								End Site
								{
									OFFSET 0.000000 0.000000 0.000000
								}
							}
						}
					}
					JOINT LeftShoulder
					{
						OFFSET 3.288150 8.794197 -1.372250
						CHANNELS 3 Xrotation Yrotation Zrotation
						JOINT LeftShoulder_split
						{
							OFFSET 3.288150 8.794197 -1.372250
							CHANNELS 3 Xrotation Yrotation Zrotation
							JOINT LeftArm
							{
								OFFSET 11.953299 -2.279007 -0.146200
								CHANNELS 3 Xrotation Yrotation Zrotation
								JOINT LeftForeArm
								{
									OFFSET 18.448900 0.000000 0.000000
									CHANNELS 3 Xrotation Yrotation Zrotation
									JOINT LeftHand
									{
										OFFSET 29.527798 0.000000 0.000000
										CHANNELS 3 Xrotation Yrotation Zrotation
										JOINT LeftHandThumb1
										{
											OFFSET 10.739754 -2.369614 9.225399
											CHANNELS 3 Xrotation Yrotation Zrotation
											JOINT LeftHandThumb2
											{
												OFFSET 4.926170 -2.844131 2.844125
												CHANNELS 3 Xrotation Yrotation Zrotation
												JOINT LeftHandThumb3
												{
													OFFSET 4.614891 -2.664413 2.664409
													CHANNELS 3 Xrotation Yrotation Zrotation
													JOINT LeftHandThumb4
													{
														OFFSET 4.432465 -2.559082 2.559083
														CHANNELS 3 Xrotation Yrotation Zrotation
														End Site
														{
															OFFSET 0.000000 0.000000 0.000000
														}
													}
												}
											}
										}
										JOINT LeftHandIndex1
										{
											OFFSET 26.467674 0.187653 6.405298
											CHANNELS 3 Xrotation Yrotation Zrotation
											JOINT LeftHandIndex2
											{
												OFFSET 8.792900 0.000000 0.000000
												CHANNELS 3 Xrotation Yrotation Zrotation
												JOINT LeftHandIndex3
												{
													OFFSET 10.075203 0.000000 0.000000
													CHANNELS 3 Xrotation Yrotation Zrotation
													End Site
													{
														OFFSET 0.000000 0.000000 0.000000
													}
												}
											}
										}
										JOINT LeftHandMiddle1
										{
											OFFSET 25.764404 0.000000 0.000000
											CHANNELS 3 Xrotation Yrotation Zrotation
											JOINT LeftHandMiddle2
											{
												OFFSET 9.393974 0.000000 0.000000
												CHANNELS 3 Xrotation Yrotation Zrotation
												JOINT LeftHandMiddle3
												{
													OFFSET 10.771950 0.000000 0.000000
													CHANNELS 3 Xrotation Yrotation Zrotation
													End Site
													{
														OFFSET 0.000000 0.000000 0.000000
													}
												}
											}
										}
										JOINT LeftHandRing1
										{
											OFFSET 24.660927 0.144547 -6.225808
											CHANNELS 3 Xrotation Yrotation Zrotation
											JOINT LeftHandRing2
											{
												OFFSET 9.393799 0.000000 0.000000
												CHANNELS 3 Xrotation Yrotation Zrotation
												JOINT LeftHandRing3
												{
													OFFSET 9.928497 0.000000 0.000000
													CHANNELS 3 Xrotation Yrotation Zrotation
													End Site
													{
														OFFSET 0.000000 0.000000 0.000000
													}
												}
											}
										}
										JOINT LeftHandPinky1
										{
											OFFSET 23.655350 0.125290 -12.815412
											CHANNELS 3 Xrotation Yrotation Zrotation
											JOINT LeftHandPinky2
											{
												OFFSET 8.425102 0.000000 0.000000
												CHANNELS 3 Xrotation Yrotation Zrotation
												JOINT LeftHandPinky3
												{
													OFFSET 8.147003 0.000000 0.000000
													CHANNELS 3 Xrotation Yrotation Zrotation
													End Site
													{
														OFFSET 0.000000 0.000000 0.000000
													}
												}
											}
										}
									}
								}
							}
						}
					}
					JOINT RightShoulder
					{
						OFFSET -3.249400 8.794197 -1.372250
						CHANNELS 3 Xrotation Yrotation Zrotation
						JOINT RightShoulder_split
						{
							OFFSET -3.249400 8.794197 -1.372250
							CHANNELS 3 Xrotation Yrotation Zrotation
							JOINT RightArm
							{
								OFFSET -11.953299 -2.279007 -0.146200
								CHANNELS 3 Xrotation Yrotation Zrotation
								JOINT RightForeArm
								{
									OFFSET -18.448900 0.000000 0.000000
									CHANNELS 3 Xrotation Yrotation Zrotation
									JOINT RightHand
									{
										OFFSET -29.527802 0.000000 0.000000
										CHANNELS 3 Xrotation Yrotation Zrotation
										JOINT RightHandThumb1
										{
											OFFSET -10.739754 -2.369614 9.225399
											CHANNELS 3 Xrotation Yrotation Zrotation
											JOINT RightHandThumb2
											{
												OFFSET -4.926170 -2.844131 2.844125
												CHANNELS 3 Xrotation Yrotation Zrotation
												JOINT RightHandThumb3
												{
													OFFSET -4.614891 -2.664413 2.664409
													CHANNELS 3 Xrotation Yrotation Zrotation
													JOINT RightHandThumb4
													{
														OFFSET -4.432465 -2.559082 2.559083
														CHANNELS 3 Xrotation Yrotation Zrotation
														End Site
														{
															OFFSET 0.000000 0.000000 0.000000
														}
													}
												}
											}
										}
										JOINT RightHandIndex1
										{
											OFFSET -26.467674 0.187653 6.405298
											CHANNELS 3 Xrotation Yrotation Zrotation
											JOINT RightHandIndex2
											{
												OFFSET -8.792900 0.000000 0.000000
												CHANNELS 3 Xrotation Yrotation Zrotation
												JOINT RightHandIndex3
												{
													OFFSET -10.075203 0.000000 0.000000
													CHANNELS 3 Xrotation Yrotation Zrotation
													End Site
													{
														OFFSET 0.000000 0.000000 0.000000
													}
												}
											}
										}
										JOINT RightHandMiddle1
										{
											OFFSET -25.764404 0.000000 0.000000
											CHANNELS 3 Xrotation Yrotation Zrotation
											JOINT RightHandMiddle2
											{
												OFFSET -9.393974 0.000000 0.000000
												CHANNELS 3 Xrotation Yrotation Zrotation
												JOINT RightHandMiddle3
												{
													OFFSET -10.771950 0.000000 0.000000
													CHANNELS 3 Xrotation Yrotation Zrotation
													End Site
													{
														OFFSET 0.000000 0.000000 0.000000
													}
												}
											}
										}
										JOINT RightHandRing1
										{
											OFFSET -24.660927 0.144547 -6.225808
											CHANNELS 3 Xrotation Yrotation Zrotation
											JOINT RightHandRing2
											{
												OFFSET -9.393799 0.000000 0.000000
												CHANNELS 3 Xrotation Yrotation Zrotation
												JOINT RightHandRing3
												{
													OFFSET -9.928497 0.000000 0.000000
													CHANNELS 3 Xrotation Yrotation Zrotation
													End Site
													{
														OFFSET 0.000000 0.000000 0.000000
													}
												}
											}
										}
										JOINT RightHandPinky1
										{
											OFFSET -23.655350 0.125290 -12.815412
											CHANNELS 3 Xrotation Yrotation Zrotation
											JOINT RightHandPinky2
											{
												OFFSET -8.425102 0.000000 0.000000
												CHANNELS 3 Xrotation Yrotation Zrotation
												JOINT RightHandPinky3
												{
													OFFSET -8.147003 0.000000 0.000000
													CHANNELS 3 Xrotation Yrotation Zrotation
													End Site
													{
														OFFSET 0.000000 0.000000 0.000000
													}
												}
											}
										}
									}
								}
							}
						}
					}
				}
			}
		}
	}
	JOINT LeftUpLeg
	{
		OFFSET 11.394100 -6.187798 -0.413800
		CHANNELS 3 Xrotation Yrotation Zrotation
		JOINT LeftLeg
		{
			OFFSET 0.430247 -32.302673 3.732800
			CHANNELS 3 Xrotation Yrotation Zrotation
			JOINT LeftFoot
			{
				OFFSET -0.430247 -48.264931 -6.423300
				CHANNELS 3 Xrotation Yrotation Zrotation
				JOINT LeftToeBase
				{
					OFFSET 4.230900 -16.068199 23.438400
					CHANNELS 3 Xrotation Yrotation Zrotation
					JOINT LeftToe_End
					{
						OFFSET 4.510700 0.695400 19.974600
						CHANNELS 3 Xrotation Yrotation Zrotation
						End Site
						{
							OFFSET 0.000000 0.000000 0.000000
						}
					}
				}
			}
		}
	}
	JOINT RightUpLeg
	{
		OFFSET -11.333700 -6.187798 -0.413800
		CHANNELS 3 Xrotation Yrotation Zrotation
		JOINT RightLeg
		{
			OFFSET -0.430392 -32.302628 3.733000
			CHANNELS 3 Xrotation Yrotation Zrotation
			JOINT RightFoot
			{
				OFFSET 0.430392 -48.264973 -6.423500
				CHANNELS 3 Xrotation Yrotation Zrotation
				JOINT RightToeBase
				{
					OFFSET -4.230900 -16.068199 23.438400
					CHANNELS 3 Xrotation Yrotation Zrotation
					JOINT RightToe_End
					{
						OFFSET -4.510700 0.695400 19.974600
						CHANNELS 3 Xrotation Yrotation Zrotation
						End Site
						{
							OFFSET 0.000000 0.000000 0.000000
						}
					}
				}
			}
		}
	}
}
MOTION
Frames: 4
Frame Time: 0.016667
6.741355 15.848656 180.439270 -98.552615 -0.192402 0.007416 3.640342 -0.638165 0.464259 0.996815 -0.409160 0.102272 0.000000 0.000000 0.000000 1.002258 -0.404640 0.123115 11.869383 -0.692220 0.070575 20.968600 -3.405664 -0.139370 -0.000001 0.000001 -0.000000 -0.224985 -17.471187 -6.131981 0.000000 0.000000 0.000000 63.391457 -14.457677 -43.758010 0.000005 -33.190355 0.000012 11.926586 0.396561 4.407997 -18.975529 -6.392794 8.507237 7.278159 22.325624 2.208020 -4.727093 21.076413 18.327812 0.000000 -0.000000 -0.000000 -1.359267 -16.895752 -9.169181 0.574340 2.531649 -25.560062 0.000001 -0.000000 -0.000001 0.066806 2.541858 -1.771540 0.574338 2.531641 -25.560064 -0.000000 -0.000002 0.000001 -0.079276 11.343933 1.376915 0.156699 1.347264 -13.267768 -0.000000 -0.000002 0.000001 -1.005491 24.263578 3.994946 0.021164 0.498108 -4.866736 -0.000001 0.000001 0.000001 -2.454923 7.297289 14.160514 0.000000 0.000000 0.000000 82.050612 23.802207 19.508781 -0.000004 33.367400 0.000005 -15.931032 26.703852 -8.895975 7.833044 7.095069 7.571912 7.285896 -22.249543 -2.728456 -3.878689 -19.856051 -17.665306 0.000001 0.000002 0.000001 0.350974 12.645974 48.306414 0.520608 -2.141520 27.324923 -0.000001 0.000001 0.000002 1.687088 -5.825082 49.552237 0.000000 0.000017 0.000020 -0.000001 -0.000001 -0.000003 7.431425 -12.945108 39.159117 -0.000004 0.000009 0.000007 -0.000001 -0.000000 -0.000003 -2.798311 -28.992329 29.298397 -0.000000 -0.000001 -0.000000 0.000001 -0.000001 0.000002 -58.985124 -35.891664 18.471731 98.456146 -4.305950 6.739384 24.991847 -4.126112 -11.867110 -8.456765 0.000005 0.000007 -0.000002 -0.000000 -0.000000 -61.844269 10.461490 -16.015933 94.686858 4.767596 -4.498778 18.039935 3.480183 10.890323 -1.799674 -0.000004 0.000007 0.000001 -0.000001 0.000000 
6.816212 15.784477 180.360992 -98.539166 -0.021638 0.070051 3.845804 -0.627806 0.446593 1.031032 -0.407030 0.091107 0.000000 0.000000 0.000000 1.036528 -0.402723 0.114033 12.329904 -0.703528 0.096694 21.499277 -3.429747 -0.164762 0.000002 -0.000000 0.000000 -0.240334 -17.364786 -6.480455 0.000000 0.000000 0.000000 63.299120 -14.213858 -43.254106 0.000005 -33.210845 0.000006 11.917002 0.404506 4.405478 -18.975509 -6.392769 8.507252 7.278160 22.325614 2.208014 -4.727098 21.076408 18.327812 -0.000001 -0.000001 -0.000001 -1.359268 -16.895745 -9.169181 0.574345 2.531652 -25.560062 0.000000 0.000001 -0.000001 0.066803 2.541856 -1.771543 0.574339 2.531661 -25.560067 0.000001 0.000003 -0.000002 -0.079278 11.343931 1.376915 0.156696 1.347270 -13.267770 -0.000002 0.000001 0.000002 -1.005496 24.263588 3.994951 0.021169 0.498112 -4.866732 -0.000001 0.000000 0.000000 -2.482200 7.018731 14.624709 0.000000 0.000000 0.000000 81.478529 23.186638 19.645584 -0.000004 33.245898 0.000005 -15.507282 26.798107 -8.793889 7.793404 7.101453 7.515300 7.283429 -22.228250 -2.727023 -3.879815 -19.826755 -17.657603 0.000002 0.000004 0.000002 0.335946 12.653747 48.176425 0.520455 -2.141228 27.320390 -0.000002 0.000002 0.000002 1.669388 -5.810010 49.433368 0.000006 0.000011 0.000014 0.000002 -0.000000 -0.000001 7.397300 -12.931464 39.055862 0.000003 -0.000002 0.000006 0.000000 0.000000 -0.000002 -2.810843 -28.967464 29.197590 -0.000007 -0.001263 0.015466 0.000000 -0.000000 0.000002 -59.461728 -35.796728 18.126926 98.429303 -3.982238 6.778178 24.999587 -4.141542 -11.913186 -8.487315 -0.000007 -0.000008 0.000002 -0.000002 -0.000002 -61.131928 9.825369 -16.455121 93.744319 4.389215 -4.536370 16.861196 3.592475 11.409577 -1.833588 0.000003 -0.000006 -0.000004 0.000001 -0.000000 
6.883424 15.717567 180.274902 -98.528361 0.136382 0.151773 4.140179 -0.619012 0.407142 1.137655 -0.405698 0.070828 0.000000 0.000000 0.000000 1.143166 -0.402001 0.095220 12.729186 -0.700866 0.120165 22.078025 -3.388850 -0.214323 0.000002 0.000000 -0.000000 -0.154405 -16.831186 -6.895302 0.000000 0.000000 0.000000 63.080540 -13.982379 -42.252865 0.000003 -33.293791 -0.000002 11.914771 0.448059 4.394558 -18.975514 -6.392793 8.507244 7.278169 22.325622 2.208011 -4.727106 21.076413 18.327812 0.000003 -0.000002 -0.000002 -1.359265 -16.895754 -9.169181 0.574339 2.531652 -25.560059 -0.000001 0.000000 -0.000001 0.066802 2.541848 -1.771544 0.574346 2.531672 -25.560059 0.000002 -0.000003 -0.000001 -0.079279 11.343925 1.376915 0.156700 1.347270 -13.267769 0.000001 -0.000000 0.000001 -1.005494 24.263591 3.994952 0.021167 0.498109 -4.866733 -0.000001 0.000001 0.000000 -2.516759 6.886644 15.038905 0.000000 0.000000 0.000000 80.629154 22.829694 19.944858 -0.000004 32.748346 0.000004 -14.761296 26.600047 -8.650814 7.677675 7.119780 7.350147 7.276359 -22.167340 -2.722942 -3.882929 -19.742810 -17.635412 0.000000 -0.000002 -0.000001 0.293470 12.676143 47.797500 0.519939 -2.140221 27.307002 0.000001 0.000000 0.000002 1.618778 -5.766384 49.086958 0.000007 -0.000003 0.000037 0.000000 0.000000 0.000001 7.298841 -12.892089 38.754869 0.000003 -0.000000 0.000000 0.000001 0.000000 -0.000003 -2.846883 -28.895436 28.904165 0.000006 -0.004937 0.060541 -0.000000 0.000000 0.000002 -59.944424 -35.655777 17.804638 98.410431 -3.693880 6.798659 25.032353 -4.141135 -11.904874 -8.497721 -0.000002 -0.000001 0.000001 0.000001 -0.000000 -60.330569 9.134116 -16.890602 92.704266 4.007103 -4.576990 15.639298 3.784961 11.955390 -1.854850 0.000010 0.000006 -0.000004 0.000000 0.000001 
6.940773 15.646988 180.183990 -98.530116 0.276055 0.248896 4.407670 -0.623299 0.350683 1.255835 -0.410343 0.044731 0.000000 0.000000 0.000000 1.261416 -0.407324 0.070598 13.050122 -0.685838 0.139931 22.764358 -3.297649 -0.308212 -0.000001 -0.000000 -0.000000 -0.073213 -16.364819 -7.317480 0.000000 0.000000 0.000000 62.845827 -13.725580 -41.337224 0.000013 -33.322154 0.000011 11.894086 0.459378 4.390753 -18.975515 -6.392792 8.507235 7.278169 22.325626 2.208019 -4.727097 21.076410 18.327810 -0.000003 -0.000001 -0.000001 -1.359271 -16.895760 -9.169187 0.574343 2.531668 -25.560065 -0.000000 -0.000000 -0.000002 0.066804 2.541835 -1.771546 0.574337 2.531657 -25.560071 -0.000000 0.000000 0.000000 -0.079279 11.343925 1.376914 0.156693 1.347261 -13.267777 -0.000000 0.000002 0.000001 -1.005493 24.263578 3.994949 0.021165 0.498100 -4.866736 -0.000001 0.000001 -0.000000 -2.562791 6.924871 15.366536 0.000000 0.000000 0.000000 79.650784 22.623099 20.419423 0.000006 32.127547 -0.000008 -13.938557 26.344888 -8.468987 7.490616 7.148987 7.083555 7.265201 -22.071353 -2.716524 -3.887607 -19.609973 -17.600125 -0.000002 -0.000002 -0.000001 0.227433 12.712872 47.186447 0.519136 -2.138656 27.285064 -0.000000 0.000000 0.000002 1.539444 -5.696205 48.528330 0.000006 -0.000016 -0.000005 -0.000000 -0.000000 0.000001 7.142412 -12.828740 38.269482 0.000003 -0.000000 0.000002 0.000001 0.000001 -0.000001 -2.903381 -28.780467 28.431806 0.000023 -0.010865 0.133269 -0.000003 0.000000 0.000002 -60.418856 -35.469084 17.515788 98.402611 -3.439300 6.798835 25.087690 -4.124269 -11.833237 -8.491014 -0.000011 -0.000001 0.000003 -0.000000 -0.000001 -59.431853 8.386277 -17.342322 91.565147 3.763426 -4.593533 14.347823 3.940499 12.631557 -1.853737 0.000002 -0.000007 -0.000001 -0.000001 0.000000 
